<svg width="157" height="32" viewBox="0 0 157 32" fill="none" xmlns="http://www.w3.org/2000/svg">
<g clip-path="url(#clip0_44_6)">
<path d="M10.2039 20.92H16.8479V24H5.93594V21.14L12.5359 11.636H5.93594V8.556H16.8479V11.416L10.2039 20.92ZM23.0674 11.57V14.694H28.1054V17.598H23.0674V20.986H28.7654V24H19.3054V8.556H28.7654V11.57H23.0674ZM39.0838 24L35.8718 18.17H34.9698V24H31.2078V8.556H37.5218C38.7391 8.556 39.7731 8.76867 40.6238 9.194C41.4891 9.61933 42.1344 10.206 42.5598 10.954C42.9851 11.6873 43.1978 12.5087 43.1978 13.418C43.1978 14.4447 42.9044 15.3613 42.3178 16.168C41.7458 16.9747 40.8951 17.5467 39.7658 17.884L43.3298 24H39.0838ZM34.9698 15.508H37.3018C37.9911 15.508 38.5044 15.3393 38.8418 15.002C39.1938 14.6647 39.3698 14.188 39.3698 13.572C39.3698 12.9853 39.1938 12.5233 38.8418 12.186C38.5044 11.8487 37.9911 11.68 37.3018 11.68H34.9698V15.508ZM52.8633 24.154C51.4113 24.154 50.0766 23.8167 48.8593 23.142C47.6566 22.4673 46.696 21.5287 45.9773 20.326C45.2733 19.1087 44.9213 17.7447 44.9213 16.234C44.9213 14.7233 45.2733 13.3667 45.9773 12.164C46.696 10.9613 47.6566 10.0227 48.8593 9.348C50.0766 8.67333 51.4113 8.336 52.8633 8.336C54.3153 8.336 55.6426 8.67333 56.8453 9.348C58.0626 10.0227 59.016 10.9613 59.7053 12.164C60.4093 13.3667 60.7613 14.7233 60.7613 16.234C60.7613 17.7447 60.4093 19.1087 59.7053 20.326C59.0013 21.5287 58.048 22.4673 56.8453 23.142C55.6426 23.8167 54.3153 24.154 52.8633 24.154ZM52.8633 20.722C54.0953 20.722 55.078 20.3113 55.8113 19.49C56.5593 18.6687 56.9333 17.5833 56.9333 16.234C56.9333 14.87 56.5593 13.7847 55.8113 12.978C55.078 12.1567 54.0953 11.746 52.8633 11.746C51.6166 11.746 50.6193 12.1493 49.8713 12.956C49.138 13.7627 48.7713 14.8553 48.7713 16.234C48.7713 17.598 49.138 18.6907 49.8713 19.512C50.6193 20.3187 51.6166 20.722 52.8633 20.722ZM90.0048 16.102C90.5621 16.19 91.0681 16.4173 91.5228 16.784C91.9921 17.1507 92.3588 17.6053 92.6228 18.148C92.9015 18.6907 93.0408 19.27 93.0408 19.886C93.0408 20.6633 92.8428 21.3673 92.4468 21.998C92.0508 22.614 91.4715 23.1053 90.7088 23.472C89.9608 23.824 89.0735 24 88.0468 24H82.3268V8.666H87.8268C88.8681 8.666 89.7555 8.842 90.4888 9.194C91.2221 9.53133 91.7721 9.99333 92.1388 10.58C92.5055 11.1667 92.6888 11.8267 92.6888 12.56C92.6888 13.4693 92.4395 14.2247 91.9408 14.826C91.4568 15.4127 90.8115 15.838 90.0048 16.102ZM84.3288 15.288H87.6948C88.6335 15.288 89.3595 15.068 89.8728 14.628C90.3861 14.188 90.6428 13.5793 90.6428 12.802C90.6428 12.0247 90.3861 11.416 89.8728 10.976C89.3595 10.536 88.6188 10.316 87.6508 10.316H84.3288V15.288ZM87.8708 22.35C88.8681 22.35 89.6455 22.1153 90.2028 21.646C90.7601 21.1767 91.0388 20.524 91.0388 19.688C91.0388 18.8373 90.7455 18.17 90.1588 17.686C89.5721 17.1873 88.7875 16.938 87.8048 16.938H84.3288V22.35H87.8708ZM103.893 24L100.241 17.73H97.821V24H95.819V8.666H100.769C101.928 8.666 102.903 8.864 103.695 9.26C104.502 9.656 105.103 10.1913 105.499 10.866C105.895 11.5407 106.093 12.3107 106.093 13.176C106.093 14.232 105.785 15.1633 105.169 15.97C104.568 16.7767 103.658 17.312 102.441 17.576L106.291 24H103.893ZM97.821 16.124H100.769C101.854 16.124 102.668 15.86 103.211 15.332C103.754 14.7893 104.025 14.0707 104.025 13.176C104.025 12.2667 103.754 11.5627 103.211 11.064C102.683 10.5653 101.869 10.316 100.769 10.316H97.821V16.124ZM111.206 10.294V15.42H116.794V17.07H111.206V22.35H117.454V24H109.204V8.644H117.454V10.294H111.206ZM139.755 8.666L135.311 24H133.067L129.503 11.658L125.807 24L123.585 24.022L119.295 8.666H121.429L124.773 21.668L128.469 8.666H130.713L134.233 21.624L137.599 8.666H139.755ZM146.808 24.154C145.796 24.154 144.887 23.978 144.08 23.626C143.288 23.2593 142.665 22.7607 142.21 22.13C141.755 21.4847 141.521 20.744 141.506 19.908H143.64C143.713 20.6267 144.007 21.2353 144.52 21.734C145.048 22.218 145.811 22.46 146.808 22.46C147.761 22.46 148.509 22.2253 149.052 21.756C149.609 21.272 149.888 20.656 149.888 19.908C149.888 19.3213 149.727 18.8447 149.404 18.478C149.081 18.1113 148.678 17.8327 148.194 17.642C147.71 17.4513 147.057 17.246 146.236 17.026C145.224 16.762 144.41 16.498 143.794 16.234C143.193 15.97 142.672 15.5593 142.232 15.002C141.807 14.43 141.594 13.6673 141.594 12.714C141.594 11.878 141.807 11.1373 142.232 10.492C142.657 9.84667 143.251 9.348 144.014 8.996C144.791 8.644 145.679 8.468 146.676 8.468C148.113 8.468 149.287 8.82733 150.196 9.546C151.12 10.2647 151.641 11.218 151.758 12.406H149.558C149.485 11.8193 149.177 11.306 148.634 10.866C148.091 10.4113 147.373 10.184 146.478 10.184C145.642 10.184 144.96 10.404 144.432 10.844C143.904 11.2693 143.64 11.8707 143.64 12.648C143.64 13.2053 143.794 13.66 144.102 14.012C144.425 14.364 144.813 14.6353 145.268 14.826C145.737 15.002 146.39 15.2073 147.226 15.442C148.238 15.7207 149.052 15.9993 149.668 16.278C150.284 16.542 150.812 16.96 151.252 17.532C151.692 18.0893 151.912 18.852 151.912 19.82C151.912 20.568 151.714 21.272 151.318 21.932C150.922 22.592 150.335 23.1273 149.558 23.538C148.781 23.9487 147.864 24.154 146.808 24.154Z" fill="white"/>
<path d="M62.1722 11.988C62.1722 10.8 62.5096 9.88333 63.1842 9.238C63.8736 8.59267 64.7609 8.27 65.8462 8.27C66.9316 8.27 67.8116 8.59267 68.4862 9.238C69.1609 9.88333 69.4982 10.8 69.4982 11.988C69.4982 13.176 69.1609 14.0927 68.4862 14.738C67.8116 15.3833 66.9316 15.706 65.8462 15.706C64.7609 15.706 63.8736 15.3833 63.1842 14.738C62.5096 14.0927 62.1722 13.176 62.1722 11.988ZM77.1102 8.512L68.6402 24H65.0102L73.4802 8.512H77.1102ZM65.8242 10.47C65.1202 10.47 64.7682 10.976 64.7682 11.988C64.7682 12.9853 65.1202 13.484 65.8242 13.484C66.1616 13.484 66.4256 13.3593 66.6162 13.11C66.8069 12.8607 66.9022 12.4867 66.9022 11.988C66.9022 10.976 66.5429 10.47 65.8242 10.47ZM72.6442 20.524C72.6442 19.336 72.9816 18.4193 73.6562 17.774C74.3309 17.1287 75.2109 16.806 76.2962 16.806C77.3816 16.806 78.2616 17.1287 78.9362 17.774C79.6109 18.4193 79.9482 19.336 79.9482 20.524C79.9482 21.712 79.6109 22.6287 78.9362 23.274C78.2616 23.9193 77.3816 24.242 76.2962 24.242C75.2109 24.242 74.3309 23.9193 73.6562 23.274C72.9816 22.6287 72.6442 21.712 72.6442 20.524ZM76.2742 19.006C75.9369 19.006 75.6729 19.1307 75.4822 19.38C75.3062 19.6293 75.2182 20.0107 75.2182 20.524C75.2182 21.5213 75.5702 22.02 76.2742 22.02C76.6116 22.02 76.8756 21.8953 77.0662 21.646C77.2569 21.3967 77.3522 21.0227 77.3522 20.524C77.3522 20.0253 77.2569 19.6513 77.0662 19.402C76.8756 19.138 76.6116 19.006 76.2742 19.006Z" fill="#F26323"/>
</g>
<defs>
<clipPath id="clip0_44_6">
<rect width="157" height="32" fill="white"/>
</clipPath>
</defs>
</svg>
