<svg width="147" height="17" viewBox="0 0 147 17" fill="none" xmlns="http://www.w3.org/2000/svg">
<path d="M4.368 12.92H11.012V16H0.1V13.14L6.7 3.636H0.1V0.556H11.012V3.416L4.368 12.92ZM17.2315 3.57V6.694H22.2695V9.598H17.2315V12.986H22.9295V16H13.4695V0.556H22.9295V3.57H17.2315ZM33.2478 16L30.0358 10.17H29.1338V16H25.3718V0.556H31.6858C32.9031 0.556 33.9371 0.768666 34.7878 1.194C35.6531 1.61933 36.2985 2.206 36.7238 2.954C37.1491 3.68733 37.3618 4.50867 37.3618 5.418C37.3618 6.44467 37.0685 7.36133 36.4818 8.168C35.9098 8.97467 35.0591 9.54667 33.9298 9.884L37.4938 16H33.2478ZM29.1338 7.508H31.4658C32.1551 7.508 32.6685 7.33933 33.0058 7.002C33.3578 6.66467 33.5338 6.188 33.5338 5.572C33.5338 4.98533 33.3578 4.52333 33.0058 4.186C32.6685 3.84867 32.1551 3.68 31.4658 3.68H29.1338V7.508ZM47.0274 16.154C45.5754 16.154 44.2407 15.8167 43.0234 15.142C41.8207 14.4673 40.86 13.5287 40.1414 12.326C39.4374 11.1087 39.0854 9.74467 39.0854 8.234C39.0854 6.72333 39.4374 5.36667 40.1414 4.164C40.86 2.96133 41.8207 2.02267 43.0234 1.348C44.2407 0.673333 45.5754 0.336 47.0274 0.336C48.4794 0.336 49.8067 0.673333 51.0094 1.348C52.2267 2.02267 53.18 2.96133 53.8694 4.164C54.5734 5.36667 54.9254 6.72333 54.9254 8.234C54.9254 9.74467 54.5734 11.1087 53.8694 12.326C53.1654 13.5287 52.212 14.4673 51.0094 15.142C49.8067 15.8167 48.4794 16.154 47.0274 16.154ZM47.0274 12.722C48.2594 12.722 49.242 12.3113 49.9754 11.49C50.7234 10.6687 51.0974 9.58333 51.0974 8.234C51.0974 6.87 50.7234 5.78467 49.9754 4.978C49.242 4.15667 48.2594 3.746 47.0274 3.746C45.7807 3.746 44.7834 4.14933 44.0354 4.956C43.302 5.76267 42.9354 6.85533 42.9354 8.234C42.9354 9.598 43.302 10.6907 44.0354 11.512C44.7834 12.3187 45.7807 12.722 47.0274 12.722ZM84.1689 8.102C84.7262 8.19 85.2322 8.41733 85.6869 8.784C86.1562 9.15067 86.5229 9.60533 86.7869 10.148C87.0655 10.6907 87.2049 11.27 87.2049 11.886C87.2049 12.6633 87.0069 13.3673 86.6109 13.998C86.2149 14.614 85.6355 15.1053 84.8729 15.472C84.1249 15.824 83.2375 16 82.2109 16H76.4909V0.665999H81.9909C83.0322 0.665999 83.9195 0.841999 84.6529 1.194C85.3862 1.53133 85.9362 1.99333 86.3029 2.58C86.6695 3.16667 86.8529 3.82667 86.8529 4.56C86.8529 5.46933 86.6035 6.22467 86.1049 6.826C85.6209 7.41267 84.9755 7.838 84.1689 8.102ZM78.4929 7.288H81.8589C82.7975 7.288 83.5235 7.068 84.0369 6.628C84.5502 6.188 84.8069 5.57933 84.8069 4.802C84.8069 4.02467 84.5502 3.416 84.0369 2.976C83.5235 2.536 82.7829 2.316 81.8149 2.316H78.4929V7.288ZM82.0349 14.35C83.0322 14.35 83.8095 14.1153 84.3669 13.646C84.9242 13.1767 85.2029 12.524 85.2029 11.688C85.2029 10.8373 84.9095 10.17 84.3229 9.686C83.7362 9.18733 82.9515 8.938 81.9689 8.938H78.4929V14.35H82.0349ZM98.0571 16L94.4051 9.73H91.9851V16H89.9831V0.665999H94.9331C96.0917 0.665999 97.0671 0.863999 97.8591 1.26C98.6657 1.656 99.2671 2.19133 99.6631 2.866C100.059 3.54067 100.257 4.31067 100.257 5.176C100.257 6.232 99.9491 7.16333 99.3331 7.97C98.7317 8.77667 97.8224 9.312 96.6051 9.576L100.455 16H98.0571ZM91.9851 8.124H94.9331C96.0184 8.124 96.8324 7.86 97.3751 7.332C97.9177 6.78933 98.1891 6.07067 98.1891 5.176C98.1891 4.26667 97.9177 3.56267 97.3751 3.064C96.8471 2.56533 96.0331 2.316 94.9331 2.316H91.9851V8.124ZM105.37 2.294V7.42H110.958V9.07H105.37V14.35H111.618V16H103.368V0.644H111.618V2.294H105.37ZM133.919 0.665999L129.475 16H127.231L123.667 3.658L119.971 16L117.749 16.022L113.459 0.665999H115.593L118.937 13.668L122.633 0.665999H124.877L128.397 13.624L131.763 0.665999H133.919ZM140.972 16.154C139.96 16.154 139.051 15.978 138.244 15.626C137.452 15.2593 136.829 14.7607 136.374 14.13C135.919 13.4847 135.685 12.744 135.67 11.908H137.804C137.877 12.6267 138.171 13.2353 138.684 13.734C139.212 14.218 139.975 14.46 140.972 14.46C141.925 14.46 142.673 14.2253 143.216 13.756C143.773 13.272 144.052 12.656 144.052 11.908C144.052 11.3213 143.891 10.8447 143.568 10.478C143.245 10.1113 142.842 9.83267 142.358 9.642C141.874 9.45133 141.221 9.246 140.4 9.026C139.388 8.762 138.574 8.498 137.958 8.234C137.357 7.97 136.836 7.55933 136.396 7.002C135.971 6.43 135.758 5.66733 135.758 4.714C135.758 3.878 135.971 3.13733 136.396 2.492C136.821 1.84667 137.415 1.348 138.178 0.995999C138.955 0.643999 139.843 0.467999 140.84 0.467999C142.277 0.467999 143.451 0.827333 144.36 1.546C145.284 2.26467 145.805 3.218 145.922 4.406H143.722C143.649 3.81933 143.341 3.306 142.798 2.866C142.255 2.41133 141.537 2.184 140.642 2.184C139.806 2.184 139.124 2.404 138.596 2.844C138.068 3.26933 137.804 3.87067 137.804 4.648C137.804 5.20533 137.958 5.66 138.266 6.012C138.589 6.364 138.977 6.63533 139.432 6.826C139.901 7.002 140.554 7.20733 141.39 7.442C142.402 7.72067 143.216 7.99933 143.832 8.278C144.448 8.542 144.976 8.96 145.416 9.532C145.856 10.0893 146.076 10.852 146.076 11.82C146.076 12.568 145.878 13.272 145.482 13.932C145.086 14.592 144.499 15.1273 143.722 15.538C142.945 15.9487 142.028 16.154 140.972 16.154Z" fill="#1E6A9C"/>
<path d="M56.3363 3.988C56.3363 2.8 56.6736 1.88333 57.3483 1.238C58.0376 0.592666 58.925 0.269999 60.0103 0.269999C61.0956 0.269999 61.9756 0.592666 62.6503 1.238C63.325 1.88333 63.6623 2.8 63.6623 3.988C63.6623 5.176 63.325 6.09267 62.6503 6.738C61.9756 7.38333 61.0956 7.706 60.0103 7.706C58.925 7.706 58.0376 7.38333 57.3483 6.738C56.6736 6.09267 56.3363 5.176 56.3363 3.988ZM71.2743 0.511999L62.8043 16H59.1743L67.6443 0.511999H71.2743ZM59.9883 2.47C59.2843 2.47 58.9323 2.976 58.9323 3.988C58.9323 4.98533 59.2843 5.484 59.9883 5.484C60.3256 5.484 60.5896 5.35933 60.7803 5.11C60.971 4.86067 61.0663 4.48667 61.0663 3.988C61.0663 2.976 60.707 2.47 59.9883 2.47ZM66.8083 12.524C66.8083 11.336 67.1456 10.4193 67.8203 9.774C68.495 9.12867 69.375 8.806 70.4603 8.806C71.5456 8.806 72.4256 9.12867 73.1003 9.774C73.775 10.4193 74.1123 11.336 74.1123 12.524C74.1123 13.712 73.775 14.6287 73.1003 15.274C72.4256 15.9193 71.5456 16.242 70.4603 16.242C69.375 16.242 68.495 15.9193 67.8203 15.274C67.1456 14.6287 66.8083 13.712 66.8083 12.524ZM70.4383 11.006C70.101 11.006 69.837 11.1307 69.6463 11.38C69.4703 11.6293 69.3823 12.0107 69.3823 12.524C69.3823 13.5213 69.7343 14.02 70.4383 14.02C70.7756 14.02 71.0396 13.8953 71.2303 13.646C71.421 13.3967 71.5163 13.0227 71.5163 12.524C71.5163 12.0253 71.421 11.6513 71.2303 11.402C71.0396 11.138 70.7756 11.006 70.4383 11.006Z" fill="#FF7A00"/>
</svg>
