<svg width="17" height="17" viewBox="0 0 17 17" fill="none" xmlns="http://www.w3.org/2000/svg">
<path d="M8.13251 1.23237C8.29571 0.802157 8.9043 0.802158 9.06749 1.23237L10.8764 6.00076C10.9469 6.18673 11.121 6.3132 11.3197 6.32283L16.4136 6.56965C16.8732 6.59192 17.0613 7.17072 16.7026 7.45887L12.7265 10.6527C12.5714 10.7773 12.505 10.9819 12.5572 11.1738L13.8966 16.0948C14.0174 16.5387 13.5251 16.8965 13.1402 16.6443L8.87397 13.8499C8.70758 13.7409 8.49242 13.7409 8.32603 13.8499L4.05984 16.6443C3.67494 16.8965 3.18258 16.5387 3.30342 16.0948L4.64281 11.1738C4.69504 10.9819 4.62855 10.7773 4.47348 10.6527L0.497446 7.45887C0.138722 7.17072 0.326787 6.59192 0.786374 6.56965L5.88035 6.32283C6.07902 6.3132 6.25309 6.18673 6.32364 6.00076L8.13251 1.23237Z" fill="#F1BD03"/>
</svg>
