<?xml version="1.0" encoding="UTF-8" standalone="no"?>
<!DOCTYPE svg PUBLIC "-//W3C//DTD SVG 1.1//EN" "http://www.w3.org/Graphics/SVG/1.1/DTD/svg11.dtd">
<svg width="100%" height="100%" viewBox="0 0 513 513" version="1.1" xmlns="http://www.w3.org/2000/svg" xmlns:xlink="http://www.w3.org/1999/xlink" xml:space="preserve" xmlns:serif="http://www.serif.com/" style="fill-rule:evenodd;clip-rule:evenodd;stroke-linejoin:round;stroke-miterlimit:2;">
    <g transform="matrix(0.962053,0,0,0.999998,9.71792,0)">
        <g>
            <path d="M479.046,283.925C477.382,279.936 473.499,277.333 469.19,277.333L352.305,277.333L352.305,10.667C352.305,4.779 347.526,0 341.638,0L170.971,0C165.083,0 160.304,4.779 160.304,10.667L160.304,277.334L42.971,277.334C38.662,277.334 34.779,279.937 33.115,283.905C31.472,287.894 32.368,292.481 35.419,295.532L248.219,509.036C250.224,511.041 252.934,512.172 255.771,512.172C258.608,512.172 261.318,511.041 263.323,509.057L476.742,295.553C479.793,292.501 480.71,287.915 479.046,283.925Z" style="fill:rgb(193,214,227);fill-rule:nonzero;"/>
            <path d="M479.046,283.925C477.382,279.936 473.499,277.333 469.19,277.333L352.305,277.333L352.305,10.667C352.305,4.779 347.526,0 341.638,0L170.971,0C165.083,0 160.304,4.779 160.304,10.667L160.304,277.334L42.971,277.334C38.662,277.334 34.779,279.937 33.115,283.905C31.472,287.894 32.368,292.481 35.419,295.532L248.219,509.036C250.224,511.041 252.934,512.172 255.771,512.172C258.608,512.172 261.318,511.041 263.323,509.057L476.742,295.553C479.793,292.501 480.71,287.915 479.046,283.925ZM469.399,287.649C469.537,287.98 469.503,288.368 469.25,288.621L255.831,502.125C255.838,502.118 255.817,502.172 255.771,502.172C255.738,502.172 255.733,502.126 255.71,502.103C255.722,502.115 42.922,288.611 42.922,288.611C42.918,288.607 42.914,288.603 42.91,288.599C42.647,288.337 42.637,287.932 42.778,287.589C42.809,287.517 42.831,287.334 42.971,287.334C42.971,287.334 160.304,287.334 160.304,287.334C166.045,287.334 170.698,282.857 170.698,277.334L170.698,10.667C170.698,10.382 170.686,10 170.971,10L341.638,10C341.923,10 341.911,10.382 341.911,10.667L341.911,277.333C341.911,282.856 346.564,287.333 352.305,287.333L469.19,287.333C469.33,287.333 469.345,287.52 469.399,287.649L469.399,287.649Z" style="fill:rgb(32,105,156);"/>
        </g>
    </g>
</svg>
