<svg width="157" height="32" viewBox="0 0 157 32" fill="none" xmlns="http://www.w3.org/2000/svg">
<path d="M9.368 20.92H16.012V24H5.1V21.14L11.7 11.636H5.1V8.556H16.012V11.416L9.368 20.92ZM22.2315 11.57V14.694H27.2695V17.598H22.2315V20.986H27.9295V24H18.4695V8.556H27.9295V11.57H22.2315ZM38.2478 24L35.0358 18.17H34.1338V24H30.3718V8.556H36.6858C37.9031 8.556 38.9371 8.76867 39.7878 9.194C40.6531 9.61933 41.2985 10.206 41.7238 10.954C42.1491 11.6873 42.3618 12.5087 42.3618 13.418C42.3618 14.4447 42.0685 15.3613 41.4818 16.168C40.9098 16.9747 40.0591 17.5467 38.9298 17.884L42.4938 24H38.2478ZM34.1338 15.508H36.4658C37.1551 15.508 37.6685 15.3393 38.0058 15.002C38.3578 14.6647 38.5338 14.188 38.5338 13.572C38.5338 12.9853 38.3578 12.5233 38.0058 12.186C37.6685 11.8487 37.1551 11.68 36.4658 11.68H34.1338V15.508ZM52.0274 24.154C50.5754 24.154 49.2407 23.8167 48.0234 23.142C46.8207 22.4673 45.86 21.5287 45.1414 20.326C44.4374 19.1087 44.0854 17.7447 44.0854 16.234C44.0854 14.7233 44.4374 13.3667 45.1414 12.164C45.86 10.9613 46.8207 10.0227 48.0234 9.348C49.2407 8.67333 50.5754 8.336 52.0274 8.336C53.4794 8.336 54.8067 8.67333 56.0094 9.348C57.2267 10.0227 58.18 10.9613 58.8694 12.164C59.5734 13.3667 59.9254 14.7233 59.9254 16.234C59.9254 17.7447 59.5734 19.1087 58.8694 20.326C58.1654 21.5287 57.212 22.4673 56.0094 23.142C54.8067 23.8167 53.4794 24.154 52.0274 24.154ZM52.0274 20.722C53.2594 20.722 54.242 20.3113 54.9754 19.49C55.7234 18.6687 56.0974 17.5833 56.0974 16.234C56.0974 14.87 55.7234 13.7847 54.9754 12.978C54.242 12.1567 53.2594 11.746 52.0274 11.746C50.7807 11.746 49.7834 12.1493 49.0354 12.956C48.302 13.7627 47.9354 14.8553 47.9354 16.234C47.9354 17.598 48.302 18.6907 49.0354 19.512C49.7834 20.3187 50.7807 20.722 52.0274 20.722ZM89.1689 16.102C89.7262 16.19 90.2322 16.4173 90.6869 16.784C91.1562 17.1507 91.5229 17.6053 91.7869 18.148C92.0655 18.6907 92.2049 19.27 92.2049 19.886C92.2049 20.6633 92.0069 21.3673 91.6109 21.998C91.2149 22.614 90.6355 23.1053 89.8729 23.472C89.1249 23.824 88.2375 24 87.2109 24H81.4909V8.666H86.9909C88.0322 8.666 88.9195 8.842 89.6529 9.194C90.3862 9.53133 90.9362 9.99333 91.3029 10.58C91.6695 11.1667 91.8529 11.8267 91.8529 12.56C91.8529 13.4693 91.6035 14.2247 91.1049 14.826C90.6209 15.4127 89.9755 15.838 89.1689 16.102ZM83.4929 15.288H86.8589C87.7975 15.288 88.5235 15.068 89.0369 14.628C89.5502 14.188 89.8069 13.5793 89.8069 12.802C89.8069 12.0247 89.5502 11.416 89.0369 10.976C88.5235 10.536 87.7829 10.316 86.8149 10.316H83.4929V15.288ZM87.0349 22.35C88.0322 22.35 88.8095 22.1153 89.3669 21.646C89.9242 21.1767 90.2029 20.524 90.2029 19.688C90.2029 18.8373 89.9095 18.17 89.3229 17.686C88.7362 17.1873 87.9515 16.938 86.9689 16.938H83.4929V22.35H87.0349ZM103.057 24L99.4051 17.73H96.9851V24H94.9831V8.666H99.9331C101.092 8.666 102.067 8.864 102.859 9.26C103.666 9.656 104.267 10.1913 104.663 10.866C105.059 11.5407 105.257 12.3107 105.257 13.176C105.257 14.232 104.949 15.1633 104.333 15.97C103.732 16.7767 102.822 17.312 101.605 17.576L105.455 24H103.057ZM96.9851 16.124H99.9331C101.018 16.124 101.832 15.86 102.375 15.332C102.918 14.7893 103.189 14.0707 103.189 13.176C103.189 12.2667 102.918 11.5627 102.375 11.064C101.847 10.5653 101.033 10.316 99.9331 10.316H96.9851V16.124ZM110.37 10.294V15.42H115.958V17.07H110.37V22.35H116.618V24H108.368V8.644H116.618V10.294H110.37ZM138.919 8.666L134.475 24H132.231L128.667 11.658L124.971 24L122.749 24.022L118.459 8.666H120.593L123.937 21.668L127.633 8.666H129.877L133.397 21.624L136.763 8.666H138.919ZM145.972 24.154C144.96 24.154 144.051 23.978 143.244 23.626C142.452 23.2593 141.829 22.7607 141.374 22.13C140.919 21.4847 140.685 20.744 140.67 19.908H142.804C142.877 20.6267 143.171 21.2353 143.684 21.734C144.212 22.218 144.975 22.46 145.972 22.46C146.925 22.46 147.673 22.2253 148.216 21.756C148.773 21.272 149.052 20.656 149.052 19.908C149.052 19.3213 148.891 18.8447 148.568 18.478C148.245 18.1113 147.842 17.8327 147.358 17.642C146.874 17.4513 146.221 17.246 145.4 17.026C144.388 16.762 143.574 16.498 142.958 16.234C142.357 15.97 141.836 15.5593 141.396 15.002C140.971 14.43 140.758 13.6673 140.758 12.714C140.758 11.878 140.971 11.1373 141.396 10.492C141.821 9.84667 142.415 9.348 143.178 8.996C143.955 8.644 144.843 8.468 145.84 8.468C147.277 8.468 148.451 8.82733 149.36 9.546C150.284 10.2647 150.805 11.218 150.922 12.406H148.722C148.649 11.8193 148.341 11.306 147.798 10.866C147.255 10.4113 146.537 10.184 145.642 10.184C144.806 10.184 144.124 10.404 143.596 10.844C143.068 11.2693 142.804 11.8707 142.804 12.648C142.804 13.2053 142.958 13.66 143.266 14.012C143.589 14.364 143.977 14.6353 144.432 14.826C144.901 15.002 145.554 15.2073 146.39 15.442C147.402 15.7207 148.216 15.9993 148.832 16.278C149.448 16.542 149.976 16.96 150.416 17.532C150.856 18.0893 151.076 18.852 151.076 19.82C151.076 20.568 150.878 21.272 150.482 21.932C150.086 22.592 149.499 23.1273 148.722 23.538C147.945 23.9487 147.028 24.154 145.972 24.154Z" fill="#1E6A9C"/>
<path d="M61.3363 11.988C61.3363 10.8 61.6736 9.88333 62.3483 9.238C63.0376 8.59267 63.925 8.27 65.0103 8.27C66.0956 8.27 66.9756 8.59267 67.6503 9.238C68.325 9.88333 68.6623 10.8 68.6623 11.988C68.6623 13.176 68.325 14.0927 67.6503 14.738C66.9756 15.3833 66.0956 15.706 65.0103 15.706C63.925 15.706 63.0376 15.3833 62.3483 14.738C61.6736 14.0927 61.3363 13.176 61.3363 11.988ZM76.2743 8.512L67.8043 24H64.1743L72.6443 8.512H76.2743ZM64.9883 10.47C64.2843 10.47 63.9323 10.976 63.9323 11.988C63.9323 12.9853 64.2843 13.484 64.9883 13.484C65.3256 13.484 65.5896 13.3593 65.7803 13.11C65.971 12.8607 66.0663 12.4867 66.0663 11.988C66.0663 10.976 65.707 10.47 64.9883 10.47ZM71.8083 20.524C71.8083 19.336 72.1456 18.4193 72.8203 17.774C73.495 17.1287 74.375 16.806 75.4603 16.806C76.5456 16.806 77.4256 17.1287 78.1003 17.774C78.775 18.4193 79.1123 19.336 79.1123 20.524C79.1123 21.712 78.775 22.6287 78.1003 23.274C77.4256 23.9193 76.5456 24.242 75.4603 24.242C74.375 24.242 73.495 23.9193 72.8203 23.274C72.1456 22.6287 71.8083 21.712 71.8083 20.524ZM75.4383 19.006C75.101 19.006 74.837 19.1307 74.6463 19.38C74.4703 19.6293 74.3823 20.0107 74.3823 20.524C74.3823 21.5213 74.7343 22.02 75.4383 22.02C75.7756 22.02 76.0396 21.8953 76.2303 21.646C76.421 21.3967 76.5163 21.0227 76.5163 20.524C76.5163 20.0253 76.421 19.6513 76.2303 19.402C76.0396 19.138 75.7756 19.006 75.4383 19.006Z" fill="#FF7A00"/>
</svg>
